<svg width="800" height="800" xmlns="http://www.w3.org/2000/svg">
  <rect width="800" height="800" fill="#FFF9C4"/>
  <!-- Carrot body -->
  <path d="M 400 250 L 500 600 Q 400 650 300 600 Z" fill="#FF6F00" stroke="#E65100" stroke-width="5"/>
  <!-- Texture lines -->
  <g stroke="#E65100" stroke-width="2">
    <line x1="350" y1="350" x2="320" y2="400"/>
    <line x1="450" y1="350" x2="480" y2="400"/>
    <line x1="370" y1="450" x2="340" y2="500"/>
    <line x1="430" y1="450" x2="460" y2="500"/>
  </g>
  <!-- Green leaves -->
  <g fill="#4CAF50" stroke="#2E7D32" stroke-width="3">
    <ellipse cx="380" cy="220" rx="15" ry="60" transform="rotate(-20 380 220)"/>
    <ellipse cx="400" cy="200" rx="15" ry="70"/>
    <ellipse cx="420" cy="220" rx="15" ry="60" transform="rotate(20 420 220)"/>
    <ellipse cx="370" cy="240" rx="12" ry="50" transform="rotate(-35 370 240)"/>
    <ellipse cx="430" cy="240" rx="12" ry="50" transform="rotate(35 430 240)"/>
  </g>
</svg>
