<svg width="800" height="800" xmlns="http://www.w3.org/2000/svg">
  <rect width="800" height="800" fill="#ECEFF1"/>
  <!-- Body -->
  <ellipse cx="450" cy="480" rx="200" ry="160" fill="#90A4AE" stroke="#37474F" stroke-width="5"/>
  <!-- Head -->
  <circle cx="350" cy="320" r="120" fill="#90A4AE" stroke="#37474F" stroke-width="5"/>
  <!-- Ears -->
  <ellipse cx="280" cy="300" rx="80" ry="100" fill="#B0BEC5" stroke="#37474F" stroke-width="5"/>
  <ellipse cx="420" cy="300" rx="80" ry="100" fill="#B0BEC5" stroke="#37474F" stroke-width="5"/>
  <!-- Trunk -->
  <path d="M 350 380 Q 320 450 300 520 Q 290 560 310 580" fill="none" stroke="#90A4AE" stroke-width="50" stroke-linecap="round"/>
  <path d="M 350 380 Q 320 450 300 520 Q 290 560 310 580" fill="none" stroke="#37474F" stroke-width="5"/>
  <!-- Eye -->
  <circle cx="360" cy="310" r="15" fill="#000"/>
  <circle cx="363" cy="307" r="5" fill="#FFF"/>
  <!-- Tusk -->
  <path d="M 310 360 Q 290 380 280 410" fill="none" stroke="#FFF" stroke-width="12" stroke-linecap="round"/>
  <!-- Legs -->
  <rect x="350" y="600" width="60" height="130" rx="20" fill="#78909C" stroke="#37474F" stroke-width="4"/>
  <rect x="440" y="600" width="60" height="130" rx="20" fill="#78909C" stroke="#37474F" stroke-width="4"/>
  <rect x="530" y="600" width="60" height="130" rx="20" fill="#78909C" stroke="#37474F" stroke-width="4"/>
  <!-- Tail -->
  <path d="M 640 500 Q 680 520 690 560" fill="none" stroke="#78909C" stroke-width="10" stroke-linecap="round"/>
</svg>
