<svg width="800" height="800" xmlns="http://www.w3.org/2000/svg">
  <rect width="800" height="800" fill="#FFF8E1"/>
  <!-- Mane -->
  <circle cx="400" cy="350" r="200" fill="#FF8F00" stroke="#E65100" stroke-width="5"/>
  <!-- Mane details -->
  <g fill="#F57C00" opacity="0.6">
    <circle cx="300" cy="250" r="40"/>
    <circle cx="500" cy="250" r="40"/>
    <circle cx="250" cy="350" r="45"/>
    <circle cx="550" cy="350" r="45"/>
    <circle cx="280" cy="450" r="40"/>
    <circle cx="520" cy="450" r="40"/>
  </g>
  <!-- Face -->
  <circle cx="400" cy="370" r="130" fill="#FFB300" stroke="#E65100" stroke-width="5"/>
  <!-- Eyes -->
  <ellipse cx="360" cy="350" rx="25" ry="30" fill="#000"/>
  <ellipse cx="440" cy="350" rx="25" ry="30" fill="#000"/>
  <circle cx="365" cy="345" r="8" fill="#FFF"/>
  <circle cx="445" cy="345" r="8" fill="#FFF"/>
  <!-- Nose -->
  <path d="M 400 390 L 380 410 L 420 410 Z" fill="#8D6E63"/>
  <!-- Mouth -->
  <path d="M 400 410 L 400 430" stroke="#8D6E63" stroke-width="4"/>
  <path d="M 360 430 Q 400 460 440 430" fill="none" stroke="#8D6E63" stroke-width="4"/>
  <!-- Whiskers -->
  <g stroke="#8D6E63" stroke-width="3" stroke-linecap="round">
    <line x1="280" y1="380" x2="340" y2="385"/>
    <line x1="280" y1="400" x2="340" y2="400"/>
    <line x1="520" y1="380" x2="460" y2="385"/>
    <line x1="520" y1="400" x2="460" y2="400"/>
  </g>
</svg>
