<svg width="800" height="800" xmlns="http://www.w3.org/2000/svg">
  <rect width="800" height="800" fill="#E8F5E9"/>
  <!-- Body -->
  <ellipse cx="400" cy="450" rx="180" ry="140" fill="#FFFFFF" stroke="#000" stroke-width="4"/>
  <!-- Spots -->
  <ellipse cx="350" cy="420" rx="40" ry="35" fill="#000"/>
  <ellipse cx="450" cy="450" rx="50" ry="40" fill="#000"/>
  <ellipse cx="380" cy="480" rx="35" ry="30" fill="#000"/>
  <!-- Head -->
  <ellipse cx="400" cy="280" rx="100" ry="90" fill="#FFFFFF" stroke="#000" stroke-width="4"/>
  <ellipse cx="420" cy="260" rx="30" ry="35" fill="#000"/>
  <!-- Eyes -->
  <circle cx="370" cy="270" r="15" fill="#000"/>
  <circle cx="430" cy="270" r="15" fill="#000"/>
  <circle cx="375" cy="265" r="5" fill="#FFF"/>
  <circle cx="435" cy="265" r="5" fill="#FFF"/>
  <!-- Nose -->
  <ellipse cx="400" cy="310" rx="40" ry="30" fill="#FFB6C1" stroke="#000" stroke-width="3"/>
  <circle cx="390" cy="310" r="6" fill="#000"/>
  <circle cx="410" cy="310" r="6" fill="#000"/>
  <!-- Horns -->
  <path d="M 350 250 Q 340 220 350 200" fill="none" stroke="#8B4513" stroke-width="8" stroke-linecap="round"/>
  <path d="M 450 250 Q 460 220 450 200" fill="none" stroke="#8B4513" stroke-width="8" stroke-linecap="round"/>
  <!-- Legs -->
  <rect x="320" y="550" width="35" height="120" rx="10" fill="#FFFFFF" stroke="#000" stroke-width="3"/>
  <rect x="380" y="550" width="35" height="120" rx="10" fill="#FFFFFF" stroke="#000" stroke-width="3"/>
  <rect x="440" y="550" width="35" height="120" rx="10" fill="#FFFFFF" stroke="#000" stroke-width="3"/>
  <rect x="500" y="550" width="35" height="120" rx="10" fill="#FFFFFF" stroke="#000" stroke-width="3"/>
</svg>
