<svg width="800" height="800" xmlns="http://www.w3.org/2000/svg">
  <rect width="800" height="800" fill="#FCE4EC"/>
  <!-- Body -->
  <ellipse cx="400" cy="450" rx="180" ry="130" fill="#F8BBD0" stroke="#C2185B" stroke-width="4"/>
  <!-- Head -->
  <ellipse cx="400" cy="300" rx="110" ry="100" fill="#F8BBD0" stroke="#C2185B" stroke-width="4"/>
  <!-- Ears -->
  <ellipse cx="340" cy="240" rx="35" ry="50" fill="#F06292" stroke="#C2185B" stroke-width="3" transform="rotate(-30 340 240)"/>
  <ellipse cx="460" cy="240" rx="35" ry="50" fill="#F06292" stroke="#C2185B" stroke-width="3" transform="rotate(30 460 240)"/>
  <!-- Eyes -->
  <circle cx="370" cy="290" r="12" fill="#000"/>
  <circle cx="430" cy="290" r="12" fill="#000"/>
  <circle cx="373" cy="287" r="4" fill="#FFF"/>
  <circle cx="433" cy="287" r="4" fill="#FFF"/>
  <!-- Snout -->
  <ellipse cx="400" cy="330" rx="50" ry="40" fill="#F48FB1" stroke="#C2185B" stroke-width="4"/>
  <circle cx="385" cy="330" r="8" fill="#880E4F"/>
  <circle cx="415" cy="330" r="8" fill="#880E4F"/>
  <!-- Legs -->
  <rect x="300" y="550" width="40" height="100" rx="15" fill="#F8BBD0" stroke="#C2185B" stroke-width="3"/>
  <rect x="360" y="550" width="40" height="100" rx="15" fill="#F8BBD0" stroke="#C2185B" stroke-width="3"/>
  <rect x="440" y="550" width="40" height="100" rx="15" fill="#F8BBD0" stroke="#C2185B" stroke-width="3"/>
  <rect x="500" y="550" width="40" height="100" rx="15" fill="#F8BBD0" stroke="#C2185B" stroke-width="3"/>
  <!-- Tail -->
  <path d="M 570 430 Q 600 400 590 370 Q 580 400 600 420" fill="none" stroke="#C2185B" stroke-width="6" stroke-linecap="round"/>
</svg>
